<svg width="18" height="16" viewBox="0 0 18 16" fill="none" xmlns="http://www.w3.org/2000/svg">
<rect x="1" width="16" height="16" fill="white"/>
<path d="M1.64942 9V1.267H2.70542L5.84042 6.283H5.23542L8.35942 1.267H9.41542V9H7.93042V3.83L8.21642 3.918L6.03842 7.416H5.02642L2.84842 3.918L3.14542 3.83V9H1.64942ZM12.0951 9V7.779H14.1081C14.4675 7.779 14.7461 7.669 14.9441 7.449C15.1495 7.229 15.2521 6.96867 15.2521 6.668C15.2521 6.46267 15.2081 6.27567 15.1201 6.107C15.0321 5.93833 14.9001 5.80633 14.7241 5.711C14.5555 5.60833 14.3501 5.557 14.1081 5.557H12.0951V4.347H13.9431C14.2511 4.347 14.4968 4.27 14.6801 4.116C14.8708 3.962 14.9661 3.731 14.9661 3.423C14.9661 3.10767 14.8708 2.873 14.6801 2.719C14.4968 2.565 14.2511 2.488 13.9431 2.488H12.0951V1.267H14.1191C14.6325 1.267 15.0615 1.36233 15.4061 1.553C15.7581 1.73633 16.0221 1.982 16.1981 2.29C16.3741 2.59067 16.4621 2.92067 16.4621 3.28C16.4621 3.72 16.3265 4.10133 16.0551 4.424C15.7911 4.73933 15.4025 4.974 14.8891 5.128L14.9551 4.644C15.5271 4.80533 15.9671 5.073 16.2751 5.447C16.5905 5.81367 16.7481 6.25733 16.7481 6.778C16.7481 7.18867 16.6455 7.56267 16.4401 7.9C16.2421 8.23 15.9488 8.49767 15.5601 8.703C15.1788 8.901 14.7131 9 14.1631 9H12.0951ZM10.9951 9V1.267H12.4801V9H10.9951Z" fill="#3F8CDA"/>
<path d="M2.89802 14.0825C2.69302 14.0825 2.49052 14.055 2.29052 14C2.09552 13.945 1.91552 13.87 1.75052 13.775C1.58552 13.675 1.44302 13.555 1.32302 13.415L1.90802 12.8225C2.03302 12.9625 2.17802 13.0675 2.34302 13.1375C2.50802 13.2075 2.69052 13.2425 2.89052 13.2425C3.05052 13.2425 3.17052 13.22 3.25052 13.175C3.33552 13.13 3.37802 13.0625 3.37802 12.9725C3.37802 12.8725 3.33302 12.795 3.24302 12.74C3.15802 12.685 3.04552 12.64 2.90552 12.605C2.76552 12.565 2.61802 12.5225 2.46302 12.4775C2.31302 12.4275 2.16802 12.365 2.02802 12.29C1.88802 12.21 1.77302 12.1025 1.68302 11.9675C1.59802 11.8275 1.55552 11.6475 1.55552 11.4275C1.55552 11.1975 1.61052 10.9975 1.72052 10.8275C1.83552 10.6575 1.99802 10.525 2.20802 10.43C2.41802 10.335 2.66552 10.2875 2.95052 10.2875C3.25052 10.2875 3.52052 10.34 3.76052 10.445C4.00552 10.55 4.20802 10.7075 4.36802 10.9175L3.77552 11.51C3.66552 11.375 3.54052 11.2775 3.40052 11.2175C3.26552 11.1575 3.11802 11.1275 2.95802 11.1275C2.81302 11.1275 2.70052 11.15 2.62052 11.195C2.54552 11.24 2.50802 11.3025 2.50802 11.3825C2.50802 11.4725 2.55052 11.5425 2.63552 11.5925C2.72552 11.6425 2.84052 11.6875 2.98052 11.7275C3.12052 11.7625 3.26552 11.805 3.41552 11.855C3.57052 11.9 3.71552 11.965 3.85052 12.05C3.99052 12.135 4.10302 12.2475 4.18802 12.3875C4.27802 12.5275 4.32302 12.7075 4.32302 12.9275C4.32302 13.2825 4.19552 13.565 3.94052 13.775C3.68552 13.98 3.33802 14.0825 2.89802 14.0825ZM6.69554 14.075C6.32554 14.075 5.99304 13.9925 5.69804 13.8275C5.40304 13.6625 5.17054 13.4375 5.00054 13.1525C4.83054 12.8675 4.74554 12.5475 4.74554 12.1925C4.74554 11.8325 4.83054 11.51 5.00054 11.225C5.17054 10.94 5.40304 10.715 5.69804 10.55C5.99804 10.38 6.33054 10.295 6.69554 10.295C6.98054 10.295 7.24304 10.3475 7.48304 10.4525C7.72304 10.5575 7.93054 10.7075 8.10554 10.9025L7.47554 11.54C7.38054 11.435 7.26554 11.355 7.13054 11.3C7.00054 11.245 6.85554 11.2175 6.69554 11.2175C6.51554 11.2175 6.35304 11.26 6.20804 11.345C6.06804 11.425 5.95554 11.5375 5.87054 11.6825C5.79054 11.8225 5.75054 11.99 5.75054 12.185C5.75054 12.375 5.79054 12.545 5.87054 12.695C5.95554 12.84 6.06804 12.955 6.20804 13.04C6.35304 13.12 6.51554 13.16 6.69554 13.16C6.86054 13.16 7.00804 13.1325 7.13804 13.0775C7.27304 13.0175 7.38804 12.9325 7.48304 12.8225L8.12054 13.46C7.93554 13.66 7.72304 13.8125 7.48304 13.9175C7.24304 14.0225 6.98054 14.075 6.69554 14.075ZM10.1114 14.075C9.78138 14.075 9.48388 13.9925 9.21888 13.8275C8.95388 13.6625 8.74638 13.4375 8.59638 13.1525C8.44638 12.8675 8.37138 12.5475 8.37138 12.1925C8.37138 11.8325 8.44638 11.51 8.59638 11.225C8.74638 10.94 8.95388 10.715 9.21888 10.55C9.48388 10.385 9.78138 10.3025 10.1114 10.3025C10.3714 10.3025 10.6039 10.355 10.8089 10.46C11.0139 10.565 11.1764 10.7125 11.2964 10.9025C11.4214 11.0875 11.4889 11.2975 11.4989 11.5325V12.8375C11.4889 13.0775 11.4214 13.29 11.2964 13.475C11.1764 13.66 11.0139 13.8075 10.8089 13.9175C10.6039 14.0225 10.3714 14.075 10.1114 14.075ZM10.2914 13.1675C10.5664 13.1675 10.7889 13.0775 10.9589 12.8975C11.1289 12.7125 11.2139 12.475 11.2139 12.185C11.2139 11.995 11.1739 11.8275 11.0939 11.6825C11.0189 11.5325 10.9114 11.4175 10.7714 11.3375C10.6364 11.2525 10.4764 11.21 10.2914 11.21C10.1114 11.21 9.95138 11.2525 9.81138 11.3375C9.67638 11.4175 9.56888 11.5325 9.48888 11.6825C9.41388 11.8275 9.37638 11.995 9.37638 12.185C9.37638 12.38 9.41388 12.5525 9.48888 12.7025C9.56888 12.8475 9.67638 12.9625 9.81138 13.0475C9.95138 13.1275 10.1114 13.1675 10.2914 13.1675ZM11.1614 14V13.025L11.3189 12.14L11.1614 11.27V10.3775H12.1364V14H11.1614ZM15.4431 14V11.9225C15.4431 11.7075 15.3756 11.5325 15.2406 11.3975C15.1056 11.2625 14.9306 11.195 14.7156 11.195C14.5756 11.195 14.4506 11.225 14.3406 11.285C14.2306 11.345 14.1431 11.43 14.0781 11.54C14.0181 11.65 13.9881 11.7775 13.9881 11.9225L13.6056 11.7275C13.6056 11.4425 13.6656 11.195 13.7856 10.985C13.9106 10.77 14.0806 10.6025 14.2956 10.4825C14.5156 10.3625 14.7631 10.3025 15.0381 10.3025C15.3031 10.3025 15.5406 10.37 15.7506 10.505C15.9606 10.635 16.1256 10.8075 16.2456 11.0225C16.3656 11.2325 16.4256 11.46 16.4256 11.705V14H15.4431ZM13.0056 14V10.3775H13.9881V14H13.0056Z" fill="#2DBD85"/>
</svg>
