<svg width="130" height="45" viewBox="0 0 130 45" fill="none" xmlns="http://www.w3.org/2000/svg">
<path d="M3.59005 29V3.692H7.04605L17.306 20.108H15.326L25.55 3.692H29.006V29H24.146V12.08L25.082 12.368L17.954 23.816H14.642L7.51405 12.368L8.48605 12.08V29H3.59005ZM37.776 29V25.004H44.364C45.54 25.004 46.452 24.644 47.1 23.924C47.772 23.204 48.108 22.352 48.108 21.368C48.108 20.696 47.964 20.084 47.676 19.532C47.388 18.98 46.956 18.548 46.38 18.236C45.828 17.9 45.156 17.732 44.364 17.732H37.776V13.772H43.824C44.832 13.772 45.636 13.52 46.236 13.016C46.86 12.512 47.172 11.756 47.172 10.748C47.172 9.716 46.86 8.948 46.236 8.444C45.636 7.94 44.832 7.688 43.824 7.688H37.776V3.692H44.4C46.08 3.692 47.484 4.004 48.612 4.628C49.764 5.228 50.628 6.032 51.204 7.04C51.78 8.024 52.068 9.104 52.068 10.28C52.068 11.72 51.624 12.968 50.736 14.024C49.872 15.056 48.6 15.824 46.92 16.328L47.136 14.744C49.008 15.272 50.448 16.148 51.456 17.372C52.488 18.572 53.004 20.024 53.004 21.728C53.004 23.072 52.668 24.296 51.996 25.4C51.348 26.48 50.388 27.356 49.116 28.028C47.868 28.676 46.344 29 44.544 29H37.776ZM34.176 29V3.692H39.036V29H34.176Z" fill="#3F8CDA"/>
<path d="M62.3589 29.396C61.3749 29.396 60.4029 29.264 59.4429 29C58.5069 28.736 57.6429 28.376 56.8509 27.92C56.0589 27.44 55.3749 26.864 54.7989 26.192L57.6069 23.348C58.2069 24.02 58.9029 24.524 59.6949 24.86C60.4869 25.196 61.3629 25.364 62.3229 25.364C63.0909 25.364 63.6669 25.256 64.0509 25.04C64.4589 24.824 64.6629 24.5 64.6629 24.068C64.6629 23.588 64.4469 23.216 64.0149 22.952C63.6069 22.688 63.0669 22.472 62.3949 22.304C61.7229 22.112 61.0149 21.908 60.2709 21.692C59.5509 21.452 58.8549 21.152 58.1829 20.792C57.5109 20.408 56.9589 19.892 56.5269 19.244C56.1189 18.572 55.9149 17.708 55.9149 16.652C55.9149 15.548 56.1789 14.588 56.7069 13.772C57.2589 12.956 58.0389 12.32 59.0469 11.864C60.0549 11.408 61.2429 11.18 62.6109 11.18C64.0509 11.18 65.3469 11.432 66.4989 11.936C67.6749 12.44 68.6469 13.196 69.4149 14.204L66.5709 17.048C66.0429 16.4 65.4429 15.932 64.7709 15.644C64.1229 15.356 63.4149 15.212 62.6469 15.212C61.9509 15.212 61.4109 15.32 61.0269 15.536C60.6669 15.752 60.4869 16.052 60.4869 16.436C60.4869 16.868 60.6909 17.204 61.0989 17.444C61.5309 17.684 62.0829 17.9 62.7549 18.092C63.4269 18.26 64.1229 18.464 64.8429 18.704C65.5869 18.92 66.2829 19.232 66.9309 19.64C67.6029 20.048 68.1429 20.588 68.5509 21.26C68.9829 21.932 69.1989 22.796 69.1989 23.852C69.1989 25.556 68.5869 26.912 67.3629 27.92C66.1389 28.904 64.4709 29.396 62.3589 29.396ZM80.587 29.36C78.811 29.36 77.215 28.964 75.799 28.172C74.383 27.38 73.267 26.3 72.451 24.932C71.635 23.564 71.227 22.028 71.227 20.324C71.227 18.596 71.635 17.048 72.451 15.68C73.267 14.312 74.383 13.232 75.799 12.44C77.239 11.624 78.835 11.216 80.587 11.216C81.955 11.216 83.215 11.468 84.367 11.972C85.519 12.476 86.515 13.196 87.355 14.132L84.331 17.192C83.875 16.688 83.323 16.304 82.675 16.04C82.051 15.776 81.355 15.644 80.587 15.644C79.723 15.644 78.943 15.848 78.247 16.256C77.575 16.64 77.035 17.18 76.627 17.876C76.243 18.548 76.051 19.352 76.051 20.288C76.051 21.2 76.243 22.016 76.627 22.736C77.035 23.432 77.575 23.984 78.247 24.392C78.943 24.776 79.723 24.968 80.587 24.968C81.379 24.968 82.087 24.836 82.711 24.572C83.359 24.284 83.911 23.876 84.367 23.348L87.427 26.408C86.539 27.368 85.519 28.1 84.367 28.604C83.215 29.108 81.955 29.36 80.587 29.36ZM96.983 29.36C95.399 29.36 93.971 28.964 92.699 28.172C91.427 27.38 90.431 26.3 89.711 24.932C88.991 23.564 88.631 22.028 88.631 20.324C88.631 18.596 88.991 17.048 89.711 15.68C90.431 14.312 91.427 13.232 92.699 12.44C93.971 11.648 95.399 11.252 96.983 11.252C98.231 11.252 99.347 11.504 100.331 12.008C101.315 12.512 102.095 13.22 102.671 14.132C103.271 15.02 103.595 16.028 103.643 17.156V23.42C103.595 24.572 103.271 25.592 102.671 26.48C102.095 27.368 101.315 28.076 100.331 28.604C99.347 29.108 98.231 29.36 96.983 29.36ZM97.847 25.004C99.167 25.004 100.235 24.572 101.051 23.708C101.867 22.82 102.275 21.68 102.275 20.288C102.275 19.376 102.083 18.572 101.699 17.876C101.339 17.156 100.823 16.604 100.151 16.22C99.503 15.812 98.735 15.608 97.847 15.608C96.983 15.608 96.215 15.812 95.543 16.22C94.895 16.604 94.379 17.156 93.995 17.876C93.635 18.572 93.455 19.376 93.455 20.288C93.455 21.224 93.635 22.052 93.995 22.772C94.379 23.468 94.895 24.02 95.543 24.428C96.215 24.812 96.983 25.004 97.847 25.004ZM102.023 29V24.32L102.779 20.072L102.023 15.896V11.612H106.703V29H102.023ZM122.575 29V19.028C122.575 17.996 122.251 17.156 121.603 16.508C120.955 15.86 120.115 15.536 119.083 15.536C118.411 15.536 117.811 15.68 117.283 15.968C116.755 16.256 116.335 16.664 116.023 17.192C115.735 17.72 115.591 18.332 115.591 19.028L113.755 18.092C113.755 16.724 114.043 15.536 114.619 14.528C115.219 13.496 116.035 12.692 117.067 12.116C118.123 11.54 119.311 11.252 120.631 11.252C121.903 11.252 123.043 11.576 124.051 12.224C125.059 12.848 125.851 13.676 126.427 14.708C127.003 15.716 127.291 16.808 127.291 17.984V29H122.575ZM110.875 29V11.612H115.591V29H110.875Z" fill="#2DBD85"/>
<path d="M56.3689 44V42.425H59.1289C59.8489 42.425 60.4789 42.27 61.0189 41.96C61.5689 41.65 61.9939 41.22 62.2939 40.67C62.6039 40.11 62.7589 39.465 62.7589 38.735C62.7589 38.015 62.6039 37.38 62.2939 36.83C61.9839 36.28 61.5539 35.85 61.0039 35.54C60.4639 35.23 59.8389 35.075 59.1289 35.075H56.3689V33.5H59.1739C59.9339 33.5 60.6389 33.635 61.2889 33.905C61.9389 34.165 62.5039 34.535 62.9839 35.015C63.4739 35.485 63.8539 36.04 64.1239 36.68C64.3939 37.31 64.5289 38 64.5289 38.75C64.5289 39.49 64.3939 40.18 64.1239 40.82C63.8539 41.46 63.4789 42.02 62.9989 42.5C62.5189 42.97 61.9539 43.34 61.3039 43.61C60.6539 43.87 59.9539 44 59.2039 44H56.3689ZM55.1839 44V33.5H56.9089V44H55.1839ZM69.0775 44.15C68.4275 44.15 67.8375 43.985 67.3075 43.655C66.7875 43.325 66.3725 42.88 66.0625 42.32C65.7625 41.75 65.6125 41.115 65.6125 40.415C65.6125 39.705 65.7625 39.07 66.0625 38.51C66.3725 37.94 66.7875 37.49 67.3075 37.16C67.8375 36.82 68.4275 36.65 69.0775 36.65C69.6275 36.65 70.1125 36.77 70.5325 37.01C70.9625 37.24 71.3025 37.56 71.5525 37.97C71.8025 38.38 71.9275 38.845 71.9275 39.365V41.435C71.9275 41.955 71.8025 42.42 71.5525 42.83C71.3125 43.24 70.9775 43.565 70.5475 43.805C70.1175 44.035 69.6275 44.15 69.0775 44.15ZM69.3475 42.59C69.9575 42.59 70.4475 42.385 70.8175 41.975C71.1975 41.565 71.3875 41.04 71.3875 40.4C71.3875 39.97 71.3025 39.59 71.1325 39.26C70.9625 38.93 70.7225 38.675 70.4125 38.495C70.1125 38.305 69.7575 38.21 69.3475 38.21C68.9475 38.21 68.5925 38.305 68.2825 38.495C67.9825 38.675 67.7425 38.93 67.5625 39.26C67.3925 39.59 67.3075 39.97 67.3075 40.4C67.3075 40.83 67.3925 41.21 67.5625 41.54C67.7425 41.87 67.9825 42.13 68.2825 42.32C68.5925 42.5 68.9475 42.59 69.3475 42.59ZM71.2825 44V42.065L71.5675 40.31L71.2825 38.57V36.8H72.9325V44H71.2825ZM77.1186 44.15C76.7186 44.15 76.3336 44.1 75.9636 44C75.5936 43.89 75.2536 43.74 74.9436 43.55C74.6336 43.35 74.3636 43.11 74.1336 42.83L75.1836 41.78C75.4336 42.07 75.7186 42.29 76.0386 42.44C76.3686 42.58 76.7386 42.65 77.1486 42.65C77.5186 42.65 77.7986 42.595 77.9886 42.485C78.1786 42.375 78.2736 42.215 78.2736 42.005C78.2736 41.785 78.1836 41.615 78.0036 41.495C77.8236 41.375 77.5886 41.275 77.2986 41.195C77.0186 41.105 76.7186 41.015 76.3986 40.925C76.0886 40.835 75.7886 40.715 75.4986 40.565C75.2186 40.405 74.9886 40.19 74.8086 39.92C74.6286 39.65 74.5386 39.3 74.5386 38.87C74.5386 38.41 74.6436 38.015 74.8536 37.685C75.0736 37.355 75.3786 37.1 75.7686 36.92C76.1686 36.74 76.6436 36.65 77.1936 36.65C77.7736 36.65 78.2836 36.755 78.7236 36.965C79.1736 37.165 79.5486 37.47 79.8486 37.88L78.7986 38.93C78.5886 38.67 78.3486 38.475 78.0786 38.345C77.8086 38.215 77.4986 38.15 77.1486 38.15C76.8186 38.15 76.5636 38.2 76.3836 38.3C76.2036 38.4 76.1136 38.545 76.1136 38.735C76.1136 38.935 76.2036 39.09 76.3836 39.2C76.5636 39.31 76.7936 39.405 77.0736 39.485C77.3636 39.565 77.6636 39.655 77.9736 39.755C78.2936 39.845 78.5936 39.975 78.8736 40.145C79.1636 40.305 79.3986 40.525 79.5786 40.805C79.7586 41.075 79.8486 41.43 79.8486 41.87C79.8486 42.57 79.6036 43.125 79.1136 43.535C78.6236 43.945 77.9586 44.15 77.1186 44.15ZM86.1439 44V39.845C86.1439 39.365 85.9889 38.97 85.6789 38.66C85.3789 38.35 84.9889 38.195 84.5089 38.195C84.1889 38.195 83.9039 38.265 83.6539 38.405C83.4039 38.545 83.2089 38.74 83.0689 38.99C82.9289 39.24 82.8589 39.525 82.8589 39.845L82.2139 39.485C82.2139 38.935 82.3339 38.45 82.5739 38.03C82.8139 37.6 83.1439 37.265 83.5639 37.025C83.9939 36.775 84.4739 36.65 85.0039 36.65C85.5439 36.65 86.0239 36.77 86.4439 37.01C86.8639 37.25 87.1939 37.585 87.4339 38.015C87.6739 38.435 87.7939 38.925 87.7939 39.485V44H86.1439ZM81.2089 44V33.2H82.8589V44H81.2089ZM93.3257 44.15C92.7757 44.15 92.2857 44.035 91.8557 43.805C91.4257 43.565 91.0857 43.24 90.8357 42.83C90.5957 42.42 90.4757 41.955 90.4757 41.435V39.365C90.4757 38.845 90.6007 38.38 90.8507 37.97C91.1007 37.56 91.4407 37.24 91.8707 37.01C92.3007 36.77 92.7857 36.65 93.3257 36.65C93.9757 36.65 94.5607 36.82 95.0807 37.16C95.6107 37.49 96.0257 37.94 96.3257 38.51C96.6357 39.07 96.7907 39.705 96.7907 40.415C96.7907 41.115 96.6357 41.75 96.3257 42.32C96.0257 42.88 95.6107 43.325 95.0807 43.655C94.5607 43.985 93.9757 44.15 93.3257 44.15ZM93.0557 42.59C93.4557 42.59 93.8057 42.5 94.1057 42.32C94.4157 42.13 94.6557 41.87 94.8257 41.54C95.0057 41.21 95.0957 40.83 95.0957 40.4C95.0957 39.97 95.0057 39.59 94.8257 39.26C94.6557 38.93 94.4157 38.675 94.1057 38.495C93.8057 38.305 93.4557 38.21 93.0557 38.21C92.6557 38.21 92.3007 38.305 91.9907 38.495C91.6807 38.675 91.4407 38.93 91.2707 39.26C91.1007 39.59 91.0157 39.97 91.0157 40.4C91.0157 40.83 91.1007 41.21 91.2707 41.54C91.4407 41.87 91.6807 42.13 91.9907 42.32C92.3007 42.5 92.6557 42.59 93.0557 42.59ZM89.4707 44V33.2H91.1207V38.57L90.8357 40.31L91.1207 42.065V44H89.4707ZM101.472 44.15C100.772 44.15 100.137 43.985 99.5668 43.655C98.9968 43.315 98.5418 42.86 98.2018 42.29C97.8718 41.72 97.7068 41.085 97.7068 40.385C97.7068 39.685 97.8718 39.055 98.2018 38.495C98.5418 37.935 98.9968 37.49 99.5668 37.16C100.137 36.82 100.772 36.65 101.472 36.65C102.182 36.65 102.822 36.815 103.392 37.145C103.962 37.475 104.412 37.925 104.742 38.495C105.082 39.055 105.252 39.685 105.252 40.385C105.252 41.085 105.082 41.72 104.742 42.29C104.412 42.86 103.962 43.315 103.392 43.655C102.822 43.985 102.182 44.15 101.472 44.15ZM101.472 42.56C101.882 42.56 102.242 42.47 102.552 42.29C102.872 42.1 103.117 41.84 103.287 41.51C103.467 41.18 103.557 40.805 103.557 40.385C103.557 39.965 103.467 39.595 103.287 39.275C103.107 38.955 102.862 38.705 102.552 38.525C102.242 38.335 101.882 38.24 101.472 38.24C101.072 38.24 100.712 38.335 100.392 38.525C100.082 38.705 99.8368 38.955 99.6568 39.275C99.4868 39.595 99.4018 39.965 99.4018 40.385C99.4018 40.805 99.4868 41.18 99.6568 41.51C99.8368 41.84 100.082 42.1 100.392 42.29C100.712 42.47 101.072 42.56 101.472 42.56ZM109.639 44.15C108.989 44.15 108.399 43.985 107.869 43.655C107.349 43.325 106.934 42.88 106.624 42.32C106.324 41.75 106.174 41.115 106.174 40.415C106.174 39.705 106.324 39.07 106.624 38.51C106.934 37.94 107.349 37.49 107.869 37.16C108.399 36.82 108.989 36.65 109.639 36.65C110.189 36.65 110.674 36.77 111.094 37.01C111.524 37.24 111.864 37.56 112.114 37.97C112.364 38.38 112.489 38.845 112.489 39.365V41.435C112.489 41.955 112.364 42.42 112.114 42.83C111.874 43.24 111.539 43.565 111.109 43.805C110.679 44.035 110.189 44.15 109.639 44.15ZM109.909 42.59C110.519 42.59 111.009 42.385 111.379 41.975C111.759 41.565 111.949 41.04 111.949 40.4C111.949 39.97 111.864 39.59 111.694 39.26C111.524 38.93 111.284 38.675 110.974 38.495C110.674 38.305 110.319 38.21 109.909 38.21C109.509 38.21 109.154 38.305 108.844 38.495C108.544 38.675 108.304 38.93 108.124 39.26C107.954 39.59 107.869 39.97 107.869 40.4C107.869 40.83 107.954 41.21 108.124 41.54C108.304 41.87 108.544 42.13 108.844 42.32C109.154 42.5 109.509 42.59 109.909 42.59ZM111.844 44V42.065L112.129 40.31L111.844 38.57V36.8H113.494V44H111.844ZM115.325 44V36.8H116.975V44H115.325ZM116.975 39.995L116.405 39.71C116.405 38.8 116.605 38.065 117.005 37.505C117.415 36.935 118.03 36.65 118.85 36.65C119.21 36.65 119.535 36.715 119.825 36.845C120.115 36.975 120.385 37.185 120.635 37.475L119.555 38.585C119.425 38.445 119.28 38.345 119.12 38.285C118.96 38.225 118.775 38.195 118.565 38.195C118.105 38.195 117.725 38.34 117.425 38.63C117.125 38.92 116.975 39.375 116.975 39.995ZM124.229 44.15C123.579 44.15 122.989 43.985 122.459 43.655C121.939 43.325 121.524 42.88 121.214 42.32C120.914 41.75 120.764 41.115 120.764 40.415C120.764 39.705 120.914 39.07 121.214 38.51C121.524 37.94 121.939 37.49 122.459 37.16C122.989 36.82 123.579 36.65 124.229 36.65C124.779 36.65 125.264 36.77 125.684 37.01C126.114 37.24 126.454 37.56 126.704 37.97C126.954 38.38 127.079 38.845 127.079 39.365V41.435C127.079 41.955 126.954 42.42 126.704 42.83C126.464 43.24 126.129 43.565 125.699 43.805C125.269 44.035 124.779 44.15 124.229 44.15ZM124.499 42.59C124.909 42.59 125.264 42.5 125.564 42.32C125.874 42.13 126.114 41.87 126.284 41.54C126.454 41.21 126.539 40.83 126.539 40.4C126.539 39.97 126.454 39.59 126.284 39.26C126.114 38.93 125.874 38.675 125.564 38.495C125.264 38.305 124.909 38.21 124.499 38.21C124.099 38.21 123.744 38.305 123.434 38.495C123.134 38.675 122.894 38.93 122.714 39.26C122.544 39.59 122.459 39.97 122.459 40.4C122.459 40.83 122.544 41.21 122.714 41.54C122.894 41.87 123.134 42.13 123.434 42.32C123.744 42.5 124.099 42.59 124.499 42.59ZM128.084 44H126.434V42.065L126.719 40.31L126.434 38.57V33.2H128.084V44Z" fill="#7F7F7F"/>
</svg>
