<svg width="125" height="27" viewBox="0 0 125 27" fill="none" xmlns="http://www.w3.org/2000/svg">
<path d="M0.590047 26V0.692H4.04605L14.306 17.108H12.326L22.55 0.692H26.006V26H21.146V9.08L22.082 9.368L14.954 20.816H11.642L4.51405 9.368L5.48605 9.08V26H0.590047ZM34.776 26V22.004H41.364C42.54 22.004 43.452 21.644 44.1 20.924C44.772 20.204 45.108 19.352 45.108 18.368C45.108 17.696 44.964 17.084 44.676 16.532C44.388 15.98 43.956 15.548 43.38 15.236C42.828 14.9 42.156 14.732 41.364 14.732H34.776V10.772H40.824C41.832 10.772 42.636 10.52 43.236 10.016C43.86 9.512 44.172 8.756 44.172 7.748C44.172 6.716 43.86 5.948 43.236 5.444C42.636 4.94 41.832 4.688 40.824 4.688H34.776V0.692H41.4C43.08 0.692 44.484 1.004 45.612 1.628C46.764 2.228 47.628 3.032 48.204 4.04C48.78 5.024 49.068 6.104 49.068 7.28C49.068 8.72 48.624 9.968 47.736 11.024C46.872 12.056 45.6 12.824 43.92 13.328L44.136 11.744C46.008 12.272 47.448 13.148 48.456 14.372C49.488 15.572 50.004 17.024 50.004 18.728C50.004 20.072 49.668 21.296 48.996 22.4C48.348 23.48 47.388 24.356 46.116 25.028C44.868 25.676 43.344 26 41.544 26H34.776ZM31.176 26V0.692H36.036V26H31.176Z" fill="#184A7C"/>
<path d="M59.3589 26.396C58.3749 26.396 57.4029 26.264 56.4429 26C55.5069 25.736 54.6429 25.376 53.8509 24.92C53.0589 24.44 52.3749 23.864 51.7989 23.192L54.6069 20.348C55.2069 21.02 55.9029 21.524 56.6949 21.86C57.4869 22.196 58.3629 22.364 59.3229 22.364C60.0909 22.364 60.6669 22.256 61.0509 22.04C61.4589 21.824 61.6629 21.5 61.6629 21.068C61.6629 20.588 61.4469 20.216 61.0149 19.952C60.6069 19.688 60.0669 19.472 59.3949 19.304C58.7229 19.112 58.0149 18.908 57.2709 18.692C56.5509 18.452 55.8549 18.152 55.1829 17.792C54.5109 17.408 53.9589 16.892 53.5269 16.244C53.1189 15.572 52.9149 14.708 52.9149 13.652C52.9149 12.548 53.1789 11.588 53.7069 10.772C54.2589 9.956 55.0389 9.32 56.0469 8.864C57.0549 8.408 58.2429 8.18 59.6109 8.18C61.0509 8.18 62.3469 8.432 63.4989 8.936C64.6749 9.44 65.6469 10.196 66.4149 11.204L63.5709 14.048C63.0429 13.4 62.4429 12.932 61.7709 12.644C61.1229 12.356 60.4149 12.212 59.6469 12.212C58.9509 12.212 58.4109 12.32 58.0269 12.536C57.6669 12.752 57.4869 13.052 57.4869 13.436C57.4869 13.868 57.6909 14.204 58.0989 14.444C58.5309 14.684 59.0829 14.9 59.7549 15.092C60.4269 15.26 61.1229 15.464 61.8429 15.704C62.5869 15.92 63.2829 16.232 63.9309 16.64C64.6029 17.048 65.1429 17.588 65.5509 18.26C65.9829 18.932 66.1989 19.796 66.1989 20.852C66.1989 22.556 65.5869 23.912 64.3629 24.92C63.1389 25.904 61.4709 26.396 59.3589 26.396ZM77.587 26.36C75.811 26.36 74.215 25.964 72.799 25.172C71.383 24.38 70.267 23.3 69.451 21.932C68.635 20.564 68.227 19.028 68.227 17.324C68.227 15.596 68.635 14.048 69.451 12.68C70.267 11.312 71.383 10.232 72.799 9.44C74.239 8.624 75.835 8.216 77.587 8.216C78.955 8.216 80.215 8.468 81.367 8.972C82.519 9.476 83.515 10.196 84.355 11.132L81.331 14.192C80.875 13.688 80.323 13.304 79.675 13.04C79.051 12.776 78.355 12.644 77.587 12.644C76.723 12.644 75.943 12.848 75.247 13.256C74.575 13.64 74.035 14.18 73.627 14.876C73.243 15.548 73.051 16.352 73.051 17.288C73.051 18.2 73.243 19.016 73.627 19.736C74.035 20.432 74.575 20.984 75.247 21.392C75.943 21.776 76.723 21.968 77.587 21.968C78.379 21.968 79.087 21.836 79.711 21.572C80.359 21.284 80.911 20.876 81.367 20.348L84.427 23.408C83.539 24.368 82.519 25.1 81.367 25.604C80.215 26.108 78.955 26.36 77.587 26.36ZM93.983 26.36C92.399 26.36 90.971 25.964 89.699 25.172C88.427 24.38 87.431 23.3 86.711 21.932C85.991 20.564 85.631 19.028 85.631 17.324C85.631 15.596 85.991 14.048 86.711 12.68C87.431 11.312 88.427 10.232 89.699 9.44C90.971 8.648 92.399 8.252 93.983 8.252C95.231 8.252 96.347 8.504 97.331 9.008C98.315 9.512 99.095 10.22 99.671 11.132C100.271 12.02 100.595 13.028 100.643 14.156V20.42C100.595 21.572 100.271 22.592 99.671 23.48C99.095 24.368 98.315 25.076 97.331 25.604C96.347 26.108 95.231 26.36 93.983 26.36ZM94.847 22.004C96.167 22.004 97.235 21.572 98.051 20.708C98.867 19.82 99.275 18.68 99.275 17.288C99.275 16.376 99.083 15.572 98.699 14.876C98.339 14.156 97.823 13.604 97.151 13.22C96.503 12.812 95.735 12.608 94.847 12.608C93.983 12.608 93.215 12.812 92.543 13.22C91.895 13.604 91.379 14.156 90.995 14.876C90.635 15.572 90.455 16.376 90.455 17.288C90.455 18.224 90.635 19.052 90.995 19.772C91.379 20.468 91.895 21.02 92.543 21.428C93.215 21.812 93.983 22.004 94.847 22.004ZM99.023 26V21.32L99.779 17.072L99.023 12.896V8.612H103.703V26H99.023ZM119.575 26V16.028C119.575 14.996 119.251 14.156 118.603 13.508C117.955 12.86 117.115 12.536 116.083 12.536C115.411 12.536 114.811 12.68 114.283 12.968C113.755 13.256 113.335 13.664 113.023 14.192C112.735 14.72 112.591 15.332 112.591 16.028L110.755 15.092C110.755 13.724 111.043 12.536 111.619 11.528C112.219 10.496 113.035 9.692 114.067 9.116C115.123 8.54 116.311 8.252 117.631 8.252C118.903 8.252 120.043 8.576 121.051 9.224C122.059 9.848 122.851 10.676 123.427 11.708C124.003 12.716 124.291 13.808 124.291 14.984V26H119.575ZM107.875 26V8.612H112.591V26H107.875Z" fill="#3F8CDA"/>
</svg>
